<svg width="691" height="83" viewBox="0 0 691 83" fill="none" xmlns="http://www.w3.org/2000/svg">
<path d="M19.7944 76.7489C13.2544 72.7095 8.3494 67.5156 4.98324 61.3604C1.61708 55.2051 0.0782776 48.7615 0.0782776 42.3177V40.1053C0.0782776 33.4691 1.71325 27.1216 4.98324 20.9663C8.25323 14.811 13.1582 9.80982 19.6982 5.8666C26.2382 1.92338 34.2208 0 43.4537 0C51.7248 0 58.8419 1.53872 64.9009 4.71253C70.96 7.79017 75.7688 11.9259 79.3274 16.9271C82.8859 21.9282 85.1941 27.4104 86.252 33.2771H68.6518C67.113 27.6989 64.0354 23.2748 59.6113 20.0048C55.1872 16.7348 49.7051 15.0997 43.3575 15.0997C38.164 15.0997 33.5475 16.2537 29.6043 18.5619C25.5649 20.8701 22.4873 24.0443 20.2752 27.9876C18.0632 32.027 17.0052 36.547 17.0052 41.5481C17.0052 46.5493 18.0632 50.781 20.2752 54.7242C22.4873 58.7636 25.5649 61.9374 29.6043 64.3418C33.6437 66.7462 38.164 67.9003 43.3575 67.9003C49.7051 67.9003 55.091 66.1694 59.5151 62.8033C63.9392 59.4371 67.0168 55.0129 68.5556 49.5309H86.252C85.0979 55.3015 82.7897 60.7836 79.135 65.881C75.5765 70.9783 70.6715 75.1137 64.6124 78.2875C58.5533 81.4613 51.4363 83 43.3575 83C34.1246 83 26.2382 80.9803 19.6982 76.9409L19.7944 76.7489ZM94.8117 24.3328H111.835V31.161C114.143 28.3718 116.836 26.2562 119.817 24.8136C122.799 23.3709 126.357 22.6974 130.685 22.6974H133.859V36.6431H126.838C121.549 36.6431 117.702 37.6047 115.393 39.5282C113.085 41.4517 111.931 44.8183 111.931 49.5309V80.4993H94.8117V24.2366V24.3328ZM179.639 38.7592C177.138 37.2204 174.157 36.3548 170.502 36.3548C166.848 36.3548 163.866 37.1242 161.462 38.7592C159.057 40.3942 157.23 42.6064 156.268 45.4917H184.929C183.871 42.6064 182.14 40.2981 179.639 38.7592ZM152.806 78.48C147.901 75.5947 144.246 71.9399 141.746 67.5158C139.245 63.0917 138.091 58.3789 138.091 53.4739V51.6465C138.091 46.7415 139.341 41.933 141.842 37.5089C144.342 32.9886 148.093 29.3338 152.902 26.5447C157.807 23.7556 163.674 22.4092 170.502 22.4092C177.331 22.4092 183.197 23.8518 188.102 26.5447C193.007 29.3338 196.758 32.9886 199.259 37.5089C201.76 42.0292 203.01 46.7415 203.01 51.6465V53.859C203.01 54.6284 203.01 55.3976 202.914 56.0708H155.306C155.883 60.014 157.519 63.0919 160.211 65.3039C162.904 67.516 166.367 68.5737 170.598 68.6699C174.061 68.6699 176.946 67.8043 179.35 66.2655C181.755 64.7266 183.486 62.6109 184.64 59.8218H202.24C201.279 63.9574 199.451 67.7082 196.758 71.1705C194.065 74.6329 190.507 77.3257 186.083 79.4415C181.659 81.5574 176.465 82.6155 170.598 82.6155C163.578 82.6155 157.711 81.1727 152.806 78.2875V78.48ZM226.188 78.48C221.283 75.5947 217.629 71.9399 215.128 67.5158C212.627 63.0917 211.473 58.3789 211.473 53.4739V51.6465C211.473 46.7415 212.724 41.933 215.224 37.5089C217.725 32.9886 221.476 29.3338 226.284 26.5447C231.189 23.7556 237.056 22.4092 243.885 22.4092C250.232 22.4092 255.618 23.5633 260.331 25.9677C265.043 28.3721 268.602 31.4495 271.295 35.3927C273.988 39.3359 275.623 43.4715 276.2 47.9918H258.984C258.215 44.2409 256.58 41.3561 254.079 39.4325C251.579 37.509 248.116 36.4511 243.981 36.4511C239.076 36.4511 235.325 37.8933 232.632 40.7786C229.939 43.6638 228.593 47.6076 228.593 52.7049C228.593 57.8022 229.939 61.6491 232.632 64.5344C235.325 67.4196 239.172 68.8619 244.077 68.9581C247.635 68.9581 250.713 68.0925 253.118 66.5537C255.522 65.0149 257.349 62.8033 258.311 59.8218H275.719C274.757 63.9574 272.93 67.8045 270.237 71.2668C267.544 74.7291 263.985 77.6145 259.561 79.7303C255.137 81.8462 249.848 82.9037 243.981 82.9037C236.96 82.9037 231.093 81.461 226.188 78.5757V78.48ZM284.663 24.3328H301.686V80.5956H284.663V24.3328ZM311.593 24.4291H328.231V31.0653C329.385 29.2379 331.79 27.3142 335.252 25.4869C338.714 23.6595 341.696 22.6974 344.292 22.6974H344.581C353.044 22.6974 359.296 25.5828 363.239 31.2572C367.471 25.5828 373.722 22.6974 382.186 22.6974H382.667C390.361 22.6974 396.324 25.0058 400.363 29.5261C404.402 34.1426 406.518 40.5866 406.518 48.9539V80.5956H389.399V46.934C389.399 43.7602 388.533 41.3556 386.802 39.5282C385.071 37.7009 382.667 36.8356 379.493 36.8356C376.031 36.8356 373.338 37.7971 371.414 39.6245C369.491 41.4518 368.529 44.1449 368.529 47.6073V80.6919H353.429V47.3185C353.525 44.0485 352.371 41.4519 350.063 39.7208C347.755 37.8934 344.87 37.0281 341.503 37.0281C337.56 37.0281 334.482 37.8933 332.078 39.6245C329.674 41.3557 328.52 44.0489 328.52 47.7035V80.7881H311.689V24.5248L311.593 24.4291ZM414.886 24.3328H431.909V80.5956H414.886V24.3328ZM483.267 38.7592C480.766 37.2204 477.785 36.3548 474.13 36.3548C470.475 36.3548 467.494 37.1242 465.09 38.7592C462.685 40.2981 460.858 42.6064 459.896 45.4917H488.557C487.499 42.6064 485.767 40.2981 483.267 38.7592ZM456.434 78.48C451.529 75.5947 447.874 71.9399 445.373 67.5158C442.873 63.0917 441.719 58.3789 441.719 53.4739V51.6465C441.719 46.7415 442.969 41.933 445.47 37.5089C447.97 33.0848 451.721 29.3338 456.53 26.5447C461.435 23.7556 467.302 22.4092 474.13 22.4092C480.959 22.4092 486.825 23.8518 491.73 26.5447C496.635 29.3338 500.386 32.9886 502.887 37.5089C505.387 42.0292 506.638 46.7415 506.638 51.6465V53.859C506.638 54.6284 506.638 55.3976 506.541 56.0708H458.934C459.511 60.014 461.146 63.0919 463.839 65.3039C466.532 67.516 469.995 68.5737 474.226 68.6699C477.689 68.6699 480.574 67.8043 482.978 66.2655C485.383 64.7266 487.114 62.6109 488.268 59.8218H505.868C504.906 63.9574 503.079 67.7082 500.386 71.1705C497.693 74.6329 494.135 77.3257 489.711 79.4415C485.287 81.5574 480.093 82.6155 474.226 82.6155C467.205 82.6155 461.339 81.1727 456.434 78.2875V78.48ZM515.101 24.3328H531.932V30.969C533.759 28.5646 536.26 26.5449 539.337 25.0061C542.319 23.3711 545.685 22.6017 549.436 22.6017C557.707 22.6017 563.862 24.9096 568.094 29.4299C572.23 34.0463 574.346 40.4903 574.346 48.8576V80.4993H557.322V46.934C557.322 43.7602 556.168 41.2599 553.764 39.4325C551.36 37.6052 548.378 36.6431 544.82 36.6431C541.261 36.6431 537.991 37.6047 535.683 39.5282C533.375 41.4517 532.22 44.1447 532.22 47.4147V80.4031H515.101V24.1403V24.3328ZM597.043 75.6905C592.715 72.4205 590.599 67.1312 590.599 59.8218V37.1238H580.597V24.4291H590.599V1.92364H607.719V24.4291H619.837V37.1238H598.101V37.9897C600.313 37.9897 602.525 38.5667 604.545 39.817C606.565 40.9711 607.623 42.7984 607.623 45.1066V60.9759C607.623 64.8229 609.835 66.7462 614.163 66.7462H619.067V80.6919H615.028C607.334 80.6919 601.275 79.0568 596.947 75.7868L597.043 75.6905ZM670.041 64.4381C672.734 61.5528 674.08 57.6098 674.08 52.6086C674.08 47.6075 672.734 43.5682 670.041 40.6829C667.348 37.7976 663.501 36.3548 658.596 36.3548C653.691 36.3548 649.94 37.7976 647.247 40.6829C644.554 43.5682 643.208 47.5113 643.208 52.6086C643.208 57.7059 644.554 61.5528 647.247 64.4381C649.94 67.3234 653.787 68.7662 658.692 68.8624C663.597 68.8624 667.348 67.3234 670.041 64.4381ZM640.899 78.48C635.994 75.5947 632.34 71.9399 629.839 67.5158C627.339 63.0917 626.184 58.3789 626.184 53.4739V51.6465C626.184 46.7415 627.435 41.933 629.935 37.5089C632.436 33.0848 636.187 29.3338 640.996 26.5447C645.901 23.7556 651.767 22.4092 658.5 22.4092C665.232 22.4092 671.195 23.8518 676.1 26.5447C681.005 29.3338 684.756 32.9886 687.256 37.5089C689.757 42.0292 691.007 46.7415 691.007 51.6465V53.4739C691.007 58.3789 689.757 62.9955 687.352 67.5158C684.948 72.0361 681.197 75.5947 676.292 78.48C671.387 81.3653 665.424 82.8075 658.596 82.8075C651.767 82.8075 645.708 81.3653 640.803 78.48H640.899Z" fill="#FEF9F4"/>
<path d="M275.039 11.9256H292.063V26.7371H275.039V11.9256ZM405.166 11.9256H422.189V26.7371H405.166V11.9256Z" fill="#FEF9F4"/>
</svg>
